<svg xmlns="http://www.w3.org/2000/svg" width="520" height="900" viewBox="0 0 520 900">
  <defs>
    <style>
      .box { fill: #f7f7fb; stroke: #2b2b2b; stroke-width: 2; }
      .title { font: 700 18px Arial, sans-serif; fill: #1a1a1a; }
      .label { font: 14px Arial, sans-serif; fill: #1a1a1a; }
      .small { font: 12px Arial, sans-serif; fill: #1a1a1a; }
      .line { stroke: #2b2b2b; stroke-width: 2; fill: none; }
    </style>
  </defs>
  <text x="24" y="28" class="title">FIG. 2 — Operational Workflow</text>
  <rect x="70" y="60" width="360" height="46" class="box" rx="8"/><text x="250.0" y="88" text-anchor="middle" class="label">200 Start</text><line x1="250.0" y1="106" x2="250.0" y2="130" class="line" /><rect x="70" y="130" width="360" height="46" class="box" rx="8"/><text x="250.0" y="158" text-anchor="middle" class="label">202 Validate retailer/context</text><line x1="250.0" y1="176" x2="250.0" y2="200" class="line" /><rect x="70" y="200" width="360" height="46" class="box" rx="8"/><text x="250.0" y="228" text-anchor="middle" class="label">204 Create session + security code</text><line x1="250.0" y1="246" x2="250.0" y2="270" class="line" /><rect x="70" y="270" width="360" height="46" class="box" rx="8"/><text x="250.0" y="298" text-anchor="middle" class="label">206 Scan/enter item SKU</text><line x1="250.0" y1="316" x2="250.0" y2="340" class="line" /><rect x="70" y="340" width="360" height="46" class="box" rx="8"/><text x="250.0" y="368" text-anchor="middle" class="label">208 Lookup inventory price/tax</text><line x1="250.0" y1="386" x2="250.0" y2="410" class="line" /><rect x="70" y="410" width="360" height="46" class="box" rx="8"/><text x="250.0" y="438" text-anchor="middle" class="label">210 Update session items + totals</text><line x1="250.0" y1="456" x2="250.0" y2="480" class="line" /><rect x="70" y="480" width="360" height="46" class="box" rx="8"/><text x="250.0" y="508" text-anchor="middle" class="label">212 More items?</text><line x1="250.0" y1="526" x2="250.0" y2="550" class="line" /><rect x="70" y="550" width="360" height="46" class="box" rx="8"/><text x="250.0" y="578" text-anchor="middle" class="label">214 Submit session</text><line x1="250.0" y1="596" x2="250.0" y2="620" class="line" /><rect x="70" y="620" width="360" height="46" class="box" rx="8"/><text x="250.0" y="648" text-anchor="middle" class="label">216 Retailer marks payment mode</text><line x1="250.0" y1="666" x2="250.0" y2="690" class="line" /><rect x="70" y="690" width="360" height="46" class="box" rx="8"/><text x="250.0" y="718" text-anchor="middle" class="label">218 Create invoice + totals</text><line x1="250.0" y1="736" x2="250.0" y2="760" class="line" /><rect x="70" y="760" width="360" height="46" class="box" rx="8"/><text x="250.0" y="788" text-anchor="middle" class="label">220 Update status = PAID</text><line x1="250.0" y1="806" x2="250.0" y2="830" class="line" /><rect x="70" y="830" width="360" height="46" class="box" rx="8"/><text x="250.0" y="858" text-anchor="middle" class="label">222 Verify security code</text><line x1="250.0" y1="876" x2="250.0" y2="900" class="line" /><rect x="70" y="900" width="360" height="46" class="box" rx="8"/><text x="250.0" y="928" text-anchor="middle" class="label">224 Update status = APPROVED</text><line x1="250.0" y1="946" x2="250.0" y2="970" class="line" /><rect x="70" y="970" width="360" height="46" class="box" rx="8"/><text x="250.0" y="998" text-anchor="middle" class="label">226 End</text>
  <line x1="430" y1="503.0" x2="590" y2="503.0" class="line" /><line x1="590" y1="503.0" x2="590" y2="293.0" class="line" /><line x1="590" y1="293.0" x2="70" y2="293.0" class="line" /><text x="600" y="497.0" class="small">yes</text>
</svg>
